# xmcd
#
# Track frame offsets: 
#        150
#        14047
#        27954
#        41674
#        56111
#        69505
#        80488
#        92592
#        107271
#        122106
#        136510
#        148802
#        162154
#        176579
#        189295
#        204427
#        219167
#        232152
#        244922
#        259449
#
# Disc length: 3614 seconds
#
# Revision: 0
# Processed by: cddbd v1.5.2PL0 Copyright (c) Steve Scherf et al.
# Submitted via: ExactAudioCopy v0.99pb5
#
DISCID=1b0e1c14
DTITLE=The Ink Spots - We'll meet again
DYEAR=2007
DGENRE=Blues
TTITLE0=If I didn't care
TTITLE1=Don't get around much anymore
TTITLE2=Java jive
TTITLE3=My prayer
TTITLE4=I don't want to set the world on fire
TTITLE5=It's a sin to tell a lie
TTITLE6=Swing high, swing low
TTITLE7=We'll meet again
TTITLE8=A lovely way to spend an evening
TTITLE9=Into each life some rain must fall
TTITLE10=I'm beginning to see the light
TTITLE11=If
TTITLE12=To each his own
TTITLE13=Your feet's too big
TTITLE14=We three (my echo, my shadow and me)
TTITLE15=When the sun goes down
TTITLE16=With plenty of money and you
TTITLE17=Just for a thrill
TTITLE18=Someone's rocking my dreamboat
TTITLE19=The best things in life are free
EXTD=
EXTT0=
EXTT1=
EXTT2=
EXTT3=
EXTT4=
EXTT5=
EXTT6=
EXTT7=
EXTT8=
EXTT9=
EXTT10=
EXTT11=
EXTT12=
EXTT13=
EXTT14=
EXTT15=
EXTT16=
EXTT17=
EXTT18=
EXTT19=
PLAYORDER=
